<svg width="954" height="600" xmlns="http://www.w3.org/2000/svg" xmlns:xlink="http://www.w3.org/1999/xlink"><g id="crossGroup"><circle cx="346.0842913975925" cy="347.44800692425855" r="4" fill="blue"/><circle cx="385.25031686983215" cy="110.90200376050493" r="4" fill="blue"/><circle cx="503.677620510811" cy="180.16601080813632" r="4" fill="blue"/><circle cx="415.32494464518214" cy="64.60616746075479" r="4" fill="blue"/><circle cx="435.4375485563524" cy="187.6501456664601" r="4" fill="blue"/><circle cx="157.63748455494135" cy="385.1387698928417" r="4" fill="blue"/><circle cx="196.803510027181" cy="148.59276672908808" r="4" fill="blue"/><circle cx="315.23081366815984" cy="217.85677377671948" r="4" fill="blue"/><circle cx="226.878137802531" cy="102.29693042933795" r="4" fill="blue"/><circle cx="246.99074171370125" cy="225.34090863504326" r="4" fill="blue"/><circle cx="190.16201498420514" cy="427.3930549294141" r="4" fill="blue"/><circle cx="229.3280404564448" cy="190.8470517656605" r="4" fill="blue"/><circle cx="347.75534409742363" cy="260.1110588132919" r="4" fill="blue"/><circle cx="259.4026682317948" cy="144.55121546591036" r="4" fill="blue"/><circle cx="279.51527214296505" cy="267.5951936716157" r="4" fill="blue"/><circle cx="272.0839825343223" cy="381.9068569016482" r="4" fill="blue"/><circle cx="311.2500080065619" cy="145.3608537378946" r="4" fill="blue"/><circle cx="429.67731164754076" cy="214.62486078552598" r="4" fill="blue"/><circle cx="341.3246357819119" cy="99.06501743814445" r="4" fill="blue"/><circle cx="361.4372396930822" cy="222.10899564384977" r="4" fill="blue"/><circle cx="290.40879102537735" cy="396.32912232197384" r="4" fill="blue"/><circle cx="329.574816497617" cy="159.7831191582202" r="4" fill="blue"/><circle cx="448.00212013859584" cy="229.0471262058516" r="4" fill="blue"/><circle cx="359.649444272967" cy="113.48728285847007" r="4" fill="blue"/><circle cx="379.76204818413726" cy="236.5312610641754" r="4" fill="blue"/></g><g id="hulls"><path d="M503.677620510811,180.16601080813632L415.32494464518214,64.60616746075479L226.878137802531,102.29693042933795L196.803510027181,148.59276672908808L157.63748455494135,385.1387698928417L190.16201498420514,427.3930549294141L290.40879102537735,396.32912232197384L346.0842913975925,347.44800692425855Z" fill-opacity="0.1" stroke="red" stroke-width="3" fill="gold"/></g></svg>